HIERARCHY
ROOT hip
{
	OFFSET 0.000000 0.000000 0.000000 
	CHANNELS 6 Xposition Yposition Zposition Xrotation Zrotation Yrotation
	JOINT abdomen
	{
		OFFSET 0.000000 3.402643 0.000000 
		CHANNELS 3 Xrotation Zrotation Yrotation
		JOINT chest
		{
			OFFSET 0.000000 8.438565 -0.680529 
			CHANNELS 3 Xrotation Zrotation Yrotation
			JOINT neck
			{
				OFFSET 0.000000 10.207942 -0.272212 
				CHANNELS 3 Xrotation Zrotation Yrotation
				JOINT head
				{
					OFFSET 0.000000 3.130431 0.000000 
					CHANNELS 3 Xrotation Zrotation Yrotation
					End Site
					{
						OFFSET 0.000000 3.130435 0.000000 
					}
				}
			}
			JOINT lCollar
			{
				OFFSET 3.470700 6.669187 -0.816635 
				CHANNELS 3 Yrotation Zrotation Xrotation
				JOINT lShldr
				{
					OFFSET 3.198488 0.000000 0.000000 
					CHANNELS 3 Zrotation Yrotation Xrotation
					JOINT lForeArm
					{
						OFFSET 10.139888 0.000000 0.000000 
						CHANNELS 3 Yrotation Zrotation Xrotation
						JOINT lHand
						{
							OFFSET 8.370511 0.000000 0.000000 
							CHANNELS 3 Zrotation Yrotation Xrotation
							End Site
							{
								OFFSET 4.083176 0.000000 0.000000 
							}
						}
					}
				}
			}
			JOINT rCollar
			{
				OFFSET -3.470700 6.669187 -0.816635 
				CHANNELS 3 Yrotation Zrotation Xrotation
				JOINT rShldr
				{
					OFFSET -3.198488 0.000000 0.000000 
					CHANNELS 3 Zrotation Yrotation Xrotation
					JOINT rForeArm
					{
						OFFSET -10.139888 0.000000 0.000000 
						CHANNELS 3 Yrotation Zrotation Xrotation
						JOINT rHand
						{
							OFFSET -8.370511 0.000000 0.000000 
							CHANNELS 3 Zrotation Yrotation Xrotation
							End Site
							{
								OFFSET -4.083176 0.000000 0.000000 
							}
						}
					}
				}
			}
		}
	}
	JOINT lThigh
	{
		OFFSET 5.308129 -1.633274 1.361059 
		CHANNELS 3 Xrotation Zrotation Yrotation
		JOINT lShin
		{
			OFFSET -2.041588 -20.007561 0.000000 
			CHANNELS 3 Xrotation Zrotation Yrotation
			JOINT lFoot
			{
				OFFSET 0.000000 -19.190928 -1.224953 
				CHANNELS 3 Xrotation Yrotation Zrotation
				End Site
				{
					OFFSET 0.000000 -2.449906 4.627600 
				}
			}
		}
	}
	JOINT rThigh
	{
		OFFSET -5.308129 -1.633274 1.361059 
		CHANNELS 3 Xrotation Zrotation Yrotation
		JOINT rShin
		{
			OFFSET 2.041588 -20.007561 0.000000 
			CHANNELS 3 Xrotation Zrotation Yrotation
			JOINT rFoot
			{
				OFFSET 0.000000 -19.190928 -1.224953 
				CHANNELS 3 Xrotation Yrotation Zrotation
				End Site
				{
					OFFSET 0.000000 -2.449906 4.627600 
				}
			}
		}
	}
}
MOTION
Frames: 9
Frame Time: 0.011111
38.552471 52.430981 17.235788 -6.382706 3.341428 -108.418228 28.067865 -9.679602 -14.403776 -18.236925 11.014106 -2.070705 0.213360 -12.336748 -14.984481 28.455624 33.192066 -24.280443 9.969777 -14.785672 3.853935 -63.401661 -43.060413 30.126783 -50.434509 7.799095 8.329661 8.524705 12.647240 -54.710335 -4.049711 8.641859 2.072876 62.951946 27.367987 4.412701 55.538223 -8.763028 10.458789 -8.534408 -12.637552 60.462746 -4.427602 2.923193 11.960442 30.003222 -5.337965 -4.846599 -25.981108 1.724800 -1.365288 -23.315184 -21.264530 -3.192858 40.930408 4.579720 6.163793 -22.428482 -2.864379 1.407508 
38.561867 52.433804 17.158100 -6.318666 3.313053 -108.412621 28.350199 -9.554212 -14.031938 -18.653423 11.094921 -2.032271 0.277859 -12.472862 -15.171028 28.591475 33.241959 -24.640106 9.969777 -14.785672 3.853935 -63.553993 -43.072117 30.709381 -50.549549 7.825483 8.379515 8.524705 12.647240 -54.524796 -4.049711 8.641859 2.072876 62.315052 27.195850 3.500921 55.696907 -8.787508 10.534418 -8.534408 -12.637552 60.560406 -4.448416 3.041579 11.974740 30.094810 -5.323526 -4.850884 -25.851830 2.042150 -1.235136 -23.188314 -21.401237 -3.208116 41.009239 4.570048 6.186579 -22.295185 -2.943549 1.417372 
38.541817 52.424404 17.062555 -6.348942 3.228004 -108.446297 28.519650 -9.455961 -14.055790 -18.730249 11.365539 -2.041742 0.157469 -12.541101 -15.195731 28.585522 32.763538 -24.766747 9.969777 -14.785672 3.853935 -63.814507 -43.041302 30.925205 -50.893909 7.896273 8.511395 8.524705 12.647240 -54.114639 -4.049711 8.641859 2.072876 61.356567 27.416105 3.318038 55.749859 -8.795333 10.555938 -8.534408 -12.637552 61.097519 -4.273465 3.032675 11.958047 29.973469 -5.337843 -4.843948 -25.767212 2.182103 -1.189259 -23.260807 -21.639721 -2.420886 40.653374 4.599445 6.146208 -22.408735 -3.308276 1.243690 
38.504852 52.418766 16.951658 -6.383531 3.121423 -108.330627 28.596956 -9.319851 -14.153073 -18.464394 11.112428 -2.062847 0.098700 -12.370239 -15.188155 28.414040 32.870628 -24.794361 9.969777 -14.785672 3.853935 -63.576256 -43.316811 31.108767 -51.229805 7.972894 8.650398 8.524705 12.647240 -53.538464 -4.049711 8.641859 2.072876 60.891678 27.960377 3.259382 55.643955 -8.779619 10.511435 -8.534408 -12.637552 60.951031 -4.027851 3.098786 12.225160 29.844450 -5.337807 -4.832600 -25.602711 1.923090 -1.329747 -23.294357 -21.986012 -1.774982 40.446377 4.609050 6.121961 -22.776937 -3.633074 1.062807 
38.480419 52.461998 16.848595 -6.131724 3.250989 -108.136147 28.550390 -8.821134 -13.816223 -18.251972 10.563190 -2.015786 0.229868 -12.189221 -15.273326 28.195177 33.543053 -24.877750 9.969777 -14.785672 3.853935 -63.190643 -43.748028 31.639202 -51.491535 8.026451 8.752980 8.524705 12.647240 -53.001354 -4.049711 8.641859 2.072876 60.705784 28.269899 2.728936 55.812496 -8.799875 10.571054 -8.534408 -12.637552 60.355328 -4.011728 3.561673 12.456325 29.733746 -5.347257 -4.824399 -25.448439 1.558810 -1.504486 -22.876022 -21.948389 -1.893698 40.089783 4.648009 6.075567 -22.749884 -4.028602 0.916863 
38.469139 52.497707 16.743338 -6.041129 3.352360 -107.975586 28.625057 -8.459268 -13.628318 -18.309118 10.775707 -2.010512 0.114117 -12.460189 -15.367846 28.174404 33.565849 -25.074272 9.969777 -14.785672 3.853935 -63.551502 -43.873814 32.188988 -51.837273 8.096818 8.897297 8.524705 12.647240 -52.552132 -4.049711 8.641859 2.072876 59.670109 28.589319 2.156129 55.908703 -8.818420 10.623645 -8.534408 -12.637552 60.404156 -4.068980 3.852455 12.595415 29.702612 -5.357615 -4.814701 -25.387060 1.186517 -1.682587 -22.828161 -22.125067 -2.012209 39.744263 4.661583 6.049687 -22.213184 -4.497957 0.824703 
38.475090 52.426914 16.629311 -6.256245 3.214389 -107.910431 28.941147 -8.537397 -13.708926 -18.331745 11.409472 -2.012944 -0.215671 -12.825488 -15.417651 28.122883 33.208424 -25.244112 9.969777 -14.785672 3.853935 -64.259827 -44.017582 32.533119 -52.151844 8.159811 9.030882 8.524705 12.647240 -52.317760 -4.049711 8.641859 2.072876 58.232620 29.126526 1.820513 55.886986 -8.813309 10.612256 -8.534408 -12.637552 60.921734 -3.892855 3.754117 12.900138 29.643034 -5.357618 -4.809464 -25.281197 0.984575 -1.782149 -23.249413 -22.770880 -1.636842 39.466446 4.696894 6.008596 -21.673826 -4.972621 0.745622 
38.482922 52.372093 16.502438 -6.499765 2.989838 -107.916687 29.273020 -8.780824 -13.789928 -18.246656 11.871054 -1.985653 -0.163789 -12.976773 -15.512367 27.549135 33.148067 -25.495543 9.969777 -14.785672 3.853935 -64.726112 -44.179756 33.036606 -52.550846 8.236479 9.187675 8.524705 12.647240 -52.249401 -4.049711 8.641859 2.072876 57.116734 29.729887 1.242992 55.950874 -8.823139 10.635446 -8.534408 -12.637552 61.175640 -3.628353 3.586541 13.032444 29.593739 -5.357460 -4.795354 -25.173798 0.970203 -1.791901 -23.280506 -23.348867 -1.321658 39.219139 4.710553 5.991941 -21.726614 -5.445880 0.564121 
38.480419 52.403732 16.382772 -6.739204 2.961762 -108.079597 29.360392 -8.844166 -13.792681 -18.724010 11.980558 -2.023739 0.381798 -13.099880 -15.617467 27.249077 33.196716 -25.649830 9.969777 -14.785672 3.853935 -64.802498 -43.675629 33.439659 -53.035091 8.331798 9.394534 8.524705 12.647240 -52.181042 -4.049711 8.641859 2.072876 56.167465 29.799278 0.823981 56.131409 -8.850489 10.711906 -8.534408 -12.637552 61.634624 -3.572951 3.484304 13.281807 29.544546 -5.352654 -4.799523 -25.085833 0.927223 -1.831806 -23.318171 -23.835730 -0.967929 38.981411 4.729893 5.967322 -21.761347 -5.674768 0.477001 
